<svg width="159" height="25" viewBox="0 0 159 25" fill="none" xmlns="http://www.w3.org/2000/svg">
<path d="M9.96484 23.3516C14.7988 23.3516 17.7725 20.9785 17.7725 17.2285V17.2139C17.7725 13.9912 15.9561 12.2334 11.6201 11.2812L9.27637 10.7686C6.52246 10.168 5.24805 9.08398 5.24805 7.35547V7.34082C5.24805 5.30469 7.09375 3.95703 9.9209 3.94238C12.6016 3.94238 14.4033 5.2168 14.7256 7.37012L14.7549 7.5752H17.3916L17.377 7.35547C17.1426 3.89844 14.125 1.51074 9.99414 1.51074C5.64355 1.51074 2.56738 3.94238 2.55273 7.41406V7.42871C2.55273 10.5195 4.48633 12.3799 8.61719 13.2881L10.9609 13.8008C13.8613 14.4453 15.0771 15.4854 15.0771 17.3457V17.3604C15.0771 19.543 13.1582 20.9199 10.1113 20.9199C7.0498 20.9199 4.99902 19.6162 4.69141 17.4922L4.66211 17.2871H2.02539L2.04004 17.4922C2.30371 21.1104 5.39453 23.3516 9.96484 23.3516ZM25.624 23H28.2607V4.23535H34.9258V1.8623H18.959V4.23535H25.624V23ZM33.0947 23H35.8633L38.002 16.9502H46.5127L48.6514 23H51.4199L43.5684 1.8623H40.9609L33.0947 23ZM42.2354 5.02637H42.2939L45.7217 14.709H38.8076L42.2354 5.02637ZM57.0303 23H59.667V13.9033L67.167 1.8623H64.1641L58.3926 11.3545H58.3047L52.5332 1.8623H49.5303L57.0303 13.9033V23ZM67.0791 15.6172H76.4541V13.2441H67.0791V15.6172ZM89.0811 23.3516C93.5049 23.3516 96.8887 20.7295 97.6943 16.6865L97.7236 16.54H95.0576L95.0137 16.6719C94.0908 19.4551 92.04 20.9199 89.0811 20.9199C84.877 20.9199 82.1377 17.5654 82.1377 12.4238V12.4092C82.1377 7.26758 84.8623 3.94238 89.0811 3.94238C92.0547 3.94238 94.1348 5.43652 94.9551 8L95.0576 8.32227H97.7236L97.6943 8.17578C96.8887 4.17676 93.4756 1.51074 89.0811 1.51074C83.1924 1.51074 79.4277 5.75879 79.4277 12.4092V12.4238C79.4277 19.0742 83.207 23.3516 89.0811 23.3516ZM100.844 23H103.48V13.376H115.082V23H117.719V1.8623H115.082V11.0029H103.48V1.8623H100.844V23ZM121.82 23H124.457V1.8623H121.82V23ZM128.559 23H141.391V20.627H131.195V1.8623H128.559V23ZM144.291 23H157.123V20.627H146.928V1.8623H144.291V23Z" fill="#292931"/>
<path d="M11.6201 11.2812L11.8346 10.3045L11.8338 10.3043L11.6201 11.2812ZM9.27637 10.7686L9.49006 9.79165L9.48944 9.79152L9.27637 10.7686ZM9.9209 3.94238V2.94237L9.91572 2.9424L9.9209 3.94238ZM14.7256 7.37012L15.7156 7.22869L15.7146 7.22211L14.7256 7.37012ZM14.7549 7.5752L13.7649 7.71662L13.8876 8.5752H14.7549V7.5752ZM17.3916 7.5752V8.5752H18.4605L18.3894 7.50868L17.3916 7.5752ZM17.377 7.35547L18.3747 7.28895L18.3747 7.28783L17.377 7.35547ZM2.55273 7.41406L1.55273 7.40984V7.41406H2.55273ZM8.61719 13.2881L8.40246 14.2648L8.40349 14.265L8.61719 13.2881ZM10.9609 13.8008L11.1779 12.8246L11.1746 12.8239L10.9609 13.8008ZM4.69141 17.4922L3.70145 17.6336L3.70173 17.6355L4.69141 17.4922ZM4.66211 17.2871L5.65206 17.1457L5.5294 16.2871H4.66211V17.2871ZM2.02539 17.2871V16.2871H0.951414L1.02793 17.3584L2.02539 17.2871ZM2.04004 17.4922L1.04258 17.5634L1.04268 17.5649L2.04004 17.4922ZM9.96484 24.3516C12.5332 24.3516 14.7264 23.7221 16.3003 22.4817C17.9004 21.2208 18.7725 19.3945 18.7725 17.2285H16.7725C16.7725 18.8125 16.1577 20.0478 15.0624 20.9109C13.9411 21.7945 12.2304 22.3516 9.96484 22.3516V24.3516ZM18.7725 17.2285V17.2139H16.7725V17.2285H18.7725ZM18.7725 17.2139C18.7725 15.3947 18.2495 13.8663 17.0167 12.6766C15.8255 11.527 14.075 10.7965 11.8346 10.3045L11.4056 12.258C13.5012 12.7182 14.8268 13.3426 15.6278 14.1157C16.3872 14.8485 16.7725 15.8104 16.7725 17.2139H18.7725ZM11.8338 10.3043L9.49006 9.79165L9.06267 11.7455L11.4064 12.2582L11.8338 10.3043ZM9.48944 9.79152C8.18058 9.50608 7.35822 9.13103 6.87628 8.72232C6.44132 8.35344 6.24805 7.93104 6.24805 7.35547H4.24805C4.24805 8.50842 4.69198 9.49226 5.5827 10.2477C6.42645 10.9632 7.61824 11.4304 9.06329 11.7456L9.48944 9.79152ZM6.24805 7.35547V7.34082H4.24805V7.35547H6.24805ZM6.24805 7.34082C6.24805 6.66249 6.53998 6.1091 7.1129 5.69197C7.71219 5.25562 8.6572 4.94894 9.92608 4.94237L9.91572 2.9424C8.35745 2.95047 6.96603 3.32494 5.93569 4.07512C4.87897 4.84451 4.24805 5.98302 4.24805 7.34082H6.24805ZM9.9209 4.94238C11.11 4.94238 12.0122 5.22536 12.6278 5.66346C13.2262 6.08942 13.6145 6.70253 13.7366 7.51813L15.7146 7.22211C15.5144 5.88438 14.8407 4.78363 13.7875 4.03405C12.7514 3.29662 11.4124 2.94238 9.9209 2.94238V4.94238ZM13.7356 7.51154L13.7649 7.71662L15.7448 7.43377L15.7155 7.2287L13.7356 7.51154ZM14.7549 8.5752H17.3916V6.5752H14.7549V8.5752ZM18.3894 7.50868L18.3747 7.28895L16.3792 7.42199L16.3938 7.64171L18.3894 7.50868ZM18.3747 7.28783C18.095 3.16341 14.495 0.510742 9.99414 0.510742V2.51074C13.755 2.51074 16.1901 4.63347 16.3792 7.42311L18.3747 7.28783ZM9.99414 0.510742C5.31746 0.510742 1.57056 3.18716 1.55274 7.40984L3.55273 7.41828C3.56421 4.69761 5.96965 2.51074 9.99414 2.51074V0.510742ZM1.55273 7.41406V7.42871H3.55273V7.41406H1.55273ZM1.55273 7.42871C1.55273 9.20687 2.12027 10.7178 3.34141 11.8964C4.52854 13.0422 6.248 13.7911 8.40246 14.2648L8.83192 12.3114C6.85552 11.8769 5.54275 11.2415 4.73037 10.4574C3.95199 9.70608 3.55273 8.74137 3.55273 7.42871H1.55273ZM8.40349 14.265L10.7472 14.7777L11.1746 12.8239L8.83088 12.3112L8.40349 14.265ZM10.744 14.777C12.1404 15.0873 12.9758 15.4637 13.4547 15.8755C13.8754 16.2373 14.0771 16.6724 14.0771 17.3457H16.0771C16.0771 16.1586 15.671 15.1436 14.7587 14.3591C13.9046 13.6246 12.6818 13.1588 11.1779 12.8246L10.744 14.777ZM14.0771 17.3457V17.3604H16.0771V17.3457H14.0771ZM14.0771 17.3604C14.0771 18.1196 13.7608 18.7109 13.1541 19.1459C12.5148 19.6043 11.4995 19.9199 10.1113 19.9199V21.9199C11.7701 21.9199 13.2376 21.5471 14.3195 20.7713C15.434 19.9722 16.0771 18.7837 16.0771 17.3604H14.0771ZM10.1113 19.9199C7.26254 19.9199 5.8832 18.7445 5.68108 17.3489L3.70173 17.6355C4.11484 20.488 6.83707 21.9199 10.1113 21.9199V19.9199ZM5.68136 17.3508L5.65206 17.1457L3.67216 17.4285L3.70146 17.6336L5.68136 17.3508ZM4.66211 16.2871H2.02539V18.2871H4.66211V16.2871ZM1.02793 17.3584L1.04258 17.5634L3.0375 17.4209L3.02285 17.2159L1.02793 17.3584ZM1.04268 17.5649C1.19591 19.6674 2.18374 21.3994 3.79502 22.5843C5.38582 23.7541 7.52556 24.3516 9.96484 24.3516V22.3516C7.83381 22.3516 6.14299 21.8284 4.97988 20.9731C3.83726 20.1328 3.14784 18.9351 3.03739 17.4195L1.04268 17.5649ZM25.624 23H24.624V24H25.624V23ZM28.2607 23V24H29.2607V23H28.2607ZM28.2607 4.23535V3.23535H27.2607V4.23535H28.2607ZM34.9258 4.23535V5.23535H35.9258V4.23535H34.9258ZM34.9258 1.8623H35.9258V0.862305H34.9258V1.8623ZM18.959 1.8623V0.862305H17.959V1.8623H18.959ZM18.959 4.23535H17.959V5.23535H18.959V4.23535ZM25.624 4.23535H26.624V3.23535H25.624V4.23535ZM25.624 24H28.2607V22H25.624V24ZM29.2607 23V4.23535H27.2607V23H29.2607ZM28.2607 5.23535H34.9258V3.23535H28.2607V5.23535ZM35.9258 4.23535V1.8623H33.9258V4.23535H35.9258ZM34.9258 0.862305H18.959V2.8623H34.9258V0.862305ZM17.959 1.8623V4.23535H19.959V1.8623H17.959ZM18.959 5.23535H25.624V3.23535H18.959V5.23535ZM24.624 4.23535V23H26.624V4.23535H24.624ZM33.0947 23L32.1575 22.6512L31.6556 24H33.0947V23ZM35.8633 23V24H36.5704L36.8061 23.3333L35.8633 23ZM38.002 16.9502V15.9502H37.2948L37.0591 16.6169L38.002 16.9502ZM46.5127 16.9502L47.4555 16.6169L47.2198 15.9502H46.5127V16.9502ZM48.6514 23L47.7085 23.3333L47.9442 24H48.6514V23ZM51.4199 23V24H52.8581L52.3573 22.6518L51.4199 23ZM43.5684 1.8623L44.5058 1.5141L44.2637 0.862305H43.5684V1.8623ZM40.9609 1.8623V0.862305H40.2661L40.0237 1.51353L40.9609 1.8623ZM42.2354 5.02637V4.02637H41.5285L41.2927 4.69265L42.2354 5.02637ZM42.2939 5.02637L43.2366 4.69265L43.0007 4.02637H42.2939V5.02637ZM45.7217 14.709V15.709H47.1365L46.6644 14.3753L45.7217 14.709ZM38.8076 14.709L37.8649 14.3753L37.3928 15.709H38.8076V14.709ZM33.0947 24H35.8633V22H33.0947V24ZM36.8061 23.3333L38.9448 17.2835L37.0591 16.6169L34.9205 22.6667L36.8061 23.3333ZM38.002 17.9502H46.5127V15.9502H38.002V17.9502ZM45.5699 17.2835L47.7085 23.3333L49.5942 22.6667L47.4555 16.6169L45.5699 17.2835ZM48.6514 24H51.4199V22H48.6514V24ZM52.3573 22.6518L44.5058 1.5141L42.6309 2.21051L50.4825 23.3482L52.3573 22.6518ZM43.5684 0.862305H40.9609V2.8623H43.5684V0.862305ZM40.0237 1.51353L32.1575 22.6512L34.0319 23.3488L41.8981 2.21108L40.0237 1.51353ZM42.2354 6.02637H42.2939V4.02637H42.2354V6.02637ZM41.3513 5.36008L44.779 15.0427L46.6644 14.3753L43.2366 4.69265L41.3513 5.36008ZM45.7217 13.709H38.8076V15.709H45.7217V13.709ZM39.7503 15.0427L43.178 5.36008L41.2927 4.69265L37.8649 14.3753L39.7503 15.0427ZM57.0303 23H56.0303V24H57.0303V23ZM59.667 23V24H60.667V23H59.667ZM59.667 13.9033L58.8182 13.3746L58.667 13.6174V13.9033H59.667ZM67.167 1.8623L68.0158 2.391L68.968 0.862305H67.167V1.8623ZM64.1641 1.8623V0.862305H63.6017L63.3096 1.34278L64.1641 1.8623ZM58.3926 11.3545V12.3545H58.9549L59.247 11.874L58.3926 11.3545ZM58.3047 11.3545L57.4502 11.874L57.7424 12.3545H58.3047V11.3545ZM52.5332 1.8623L53.3877 1.34278L53.0955 0.862305H52.5332V1.8623ZM49.5303 1.8623V0.862305H47.7293L48.6815 2.391L49.5303 1.8623ZM57.0303 13.9033H58.0303V13.6174L57.8791 13.3746L57.0303 13.9033ZM57.0303 24H59.667V22H57.0303V24ZM60.667 23V13.9033H58.667V23H60.667ZM60.5158 14.432L68.0158 2.391L66.3182 1.33361L58.8182 13.3746L60.5158 14.432ZM67.167 0.862305H64.1641V2.8623H67.167V0.862305ZM63.3096 1.34278L57.5381 10.835L59.247 11.874L65.0185 2.38183L63.3096 1.34278ZM58.3926 10.3545H58.3047V12.3545H58.3926V10.3545ZM59.1591 10.835L53.3877 1.34278L51.6787 2.38183L57.4502 11.874L59.1591 10.835ZM52.5332 0.862305H49.5303V2.8623H52.5332V0.862305ZM48.6815 2.391L56.1815 14.432L57.8791 13.3746L50.3791 1.33361L48.6815 2.391ZM56.0303 13.9033V23H58.0303V13.9033H56.0303ZM67.0791 15.6172H66.0791V16.6172H67.0791V15.6172ZM76.4541 15.6172V16.6172H77.4541V15.6172H76.4541ZM76.4541 13.2441H77.4541V12.2441H76.4541V13.2441ZM67.0791 13.2441V12.2441H66.0791V13.2441H67.0791ZM67.0791 16.6172H76.4541V14.6172H67.0791V16.6172ZM77.4541 15.6172V13.2441H75.4541V15.6172H77.4541ZM76.4541 12.2441H67.0791V14.2441H76.4541V12.2441ZM66.0791 13.2441V15.6172H68.0791V13.2441H66.0791ZM97.6943 16.6865L96.7138 16.4904L96.7136 16.4911L97.6943 16.6865ZM97.7236 16.54L98.7042 16.7362L98.9434 15.54H97.7236V16.54ZM95.0576 16.54V15.54H94.3369L94.1089 16.2238L95.0576 16.54ZM95.0137 16.6719L94.065 16.3556L94.0645 16.3571L95.0137 16.6719ZM94.9551 8L95.908 7.6968L95.9075 7.69522L94.9551 8ZM95.0576 8.32227L94.1047 8.62547L94.3264 9.32227H95.0576V8.32227ZM97.7236 8.32227V9.32227H98.9434L98.7042 8.12615L97.7236 8.32227ZM97.6943 8.17578L98.6749 7.97966L98.6746 7.97828L97.6943 8.17578ZM89.0811 24.3516C93.9322 24.3516 97.7668 21.4397 98.6751 16.882L96.7136 16.4911C96.0105 20.0193 93.0776 22.3516 89.0811 22.3516V24.3516ZM98.6749 16.8826L98.7042 16.7362L96.743 16.3439L96.7138 16.4904L98.6749 16.8826ZM97.7236 15.54H95.0576V17.54H97.7236V15.54ZM94.1089 16.2238L94.065 16.3556L95.9624 16.9881L96.0063 16.8563L94.1089 16.2238ZM94.0645 16.3571C93.6575 17.5847 93.0258 18.4562 92.229 19.0264C91.4313 19.5972 90.3927 19.9199 89.0811 19.9199V21.9199C90.7284 21.9199 92.1947 21.5102 93.3929 20.6528C94.5919 19.7948 95.447 18.5423 95.9629 16.9866L94.0645 16.3571ZM89.0811 19.9199C87.2686 19.9199 85.821 19.208 84.8072 17.9673C83.7775 16.707 83.1377 14.8256 83.1377 12.4238H81.1377C81.1377 15.1636 81.8675 17.5303 83.2585 19.2327C84.6653 20.9545 86.6894 21.9199 89.0811 21.9199V19.9199ZM83.1377 12.4238V12.4092H81.1377V12.4238H83.1377ZM83.1377 12.4092C83.1377 10.0062 83.7744 8.13339 84.8007 6.8817C85.8106 5.64983 87.2575 4.94238 89.0811 4.94238V2.94238C86.6859 2.94238 84.661 3.89753 83.254 5.61366C81.8633 7.30997 81.1377 9.67055 81.1377 12.4092H83.1377ZM89.0811 4.94238C90.3987 4.94238 91.4538 5.27193 92.2532 5.8299C93.0494 6.38563 93.6522 7.20946 94.0027 8.30478L95.9075 7.69522C95.4377 6.22706 94.5902 5.02209 93.3979 4.18988C92.2088 3.35991 90.737 2.94238 89.0811 2.94238V4.94238ZM94.0022 8.3032L94.1047 8.62547L96.0105 8.01906L95.908 7.6968L94.0022 8.3032ZM95.0576 9.32227H97.7236V7.32227H95.0576V9.32227ZM98.7042 8.12615L98.6749 7.97966L96.7138 8.3719L96.743 8.51838L98.7042 8.12615ZM98.6746 7.97828C97.7662 3.46905 93.906 0.510742 89.0811 0.510742V2.51074C93.0452 2.51074 96.0112 4.88446 96.714 8.37328L98.6746 7.97828ZM89.0811 0.510742C85.8817 0.510742 83.1844 1.67308 81.2976 3.80296C79.4222 5.91999 78.4277 8.90034 78.4277 12.4092H80.4277C80.4277 9.26762 81.3156 6.79876 82.7947 5.12917C84.2623 3.47243 86.3917 2.51074 89.0811 2.51074V0.510742ZM78.4277 12.4092V12.4238H80.4277V12.4092H78.4277ZM78.4277 12.4238C78.4277 15.9335 79.4263 18.9202 81.3022 21.0437C83.1895 23.18 85.8863 24.3516 89.0811 24.3516V22.3516C86.4018 22.3516 84.272 21.3845 82.8011 19.7195C81.3188 18.0417 80.4277 15.5645 80.4277 12.4238H78.4277ZM100.844 23H99.8438V24H100.844V23ZM103.48 23V24H104.48V23H103.48ZM103.48 13.376V12.376H102.48V13.376H103.48ZM115.082 13.376H116.082V12.376H115.082V13.376ZM115.082 23H114.082V24H115.082V23ZM117.719 23V24H118.719V23H117.719ZM117.719 1.8623H118.719V0.862305H117.719V1.8623ZM115.082 1.8623V0.862305H114.082V1.8623H115.082ZM115.082 11.0029V12.0029H116.082V11.0029H115.082ZM103.48 11.0029H102.48V12.0029H103.48V11.0029ZM103.48 1.8623H104.48V0.862305H103.48V1.8623ZM100.844 1.8623V0.862305H99.8438V1.8623H100.844ZM100.844 24H103.48V22H100.844V24ZM104.48 23V13.376H102.48V23H104.48ZM103.48 14.376H115.082V12.376H103.48V14.376ZM114.082 13.376V23H116.082V13.376H114.082ZM115.082 24H117.719V22H115.082V24ZM118.719 23V1.8623H116.719V23H118.719ZM117.719 0.862305H115.082V2.8623H117.719V0.862305ZM114.082 1.8623V11.0029H116.082V1.8623H114.082ZM115.082 10.0029H103.48V12.0029H115.082V10.0029ZM104.48 11.0029V1.8623H102.48V11.0029H104.48ZM103.48 0.862305H100.844V2.8623H103.48V0.862305ZM99.8438 1.8623V23H101.844V1.8623H99.8438ZM121.82 23H120.82V24H121.82V23ZM124.457 23V24H125.457V23H124.457ZM124.457 1.8623H125.457V0.862305H124.457V1.8623ZM121.82 1.8623V0.862305H120.82V1.8623H121.82ZM121.82 24H124.457V22H121.82V24ZM125.457 23V1.8623H123.457V23H125.457ZM124.457 0.862305H121.82V2.8623H124.457V0.862305ZM120.82 1.8623V23H122.82V1.8623H120.82ZM128.559 23H127.559V24H128.559V23ZM141.391 23V24H142.391V23H141.391ZM141.391 20.627H142.391V19.627H141.391V20.627ZM131.195 20.627H130.195V21.627H131.195V20.627ZM131.195 1.8623H132.195V0.862305H131.195V1.8623ZM128.559 1.8623V0.862305H127.559V1.8623H128.559ZM128.559 24H141.391V22H128.559V24ZM142.391 23V20.627H140.391V23H142.391ZM141.391 19.627H131.195V21.627H141.391V19.627ZM132.195 20.627V1.8623H130.195V20.627H132.195ZM131.195 0.862305H128.559V2.8623H131.195V0.862305ZM127.559 1.8623V23H129.559V1.8623H127.559ZM144.291 23H143.291V24H144.291V23ZM157.123 23V24H158.123V23H157.123ZM157.123 20.627H158.123V19.627H157.123V20.627ZM146.928 20.627H145.928V21.627H146.928V20.627ZM146.928 1.8623H147.928V0.862305H146.928V1.8623ZM144.291 1.8623V0.862305H143.291V1.8623H144.291ZM144.291 24H157.123V22H144.291V24ZM158.123 23V20.627H156.123V23H158.123ZM157.123 19.627H146.928V21.627H157.123V19.627ZM147.928 20.627V1.8623H145.928V20.627H147.928ZM146.928 0.862305H144.291V2.8623H146.928V0.862305ZM143.291 1.8623V23H145.291V1.8623H143.291Z" fill="#292931"/>
</svg>
