<svg width="167" height="33" viewBox="0 0 167 33" fill="none" xmlns="http://www.w3.org/2000/svg">
<g filter="url(#filter0_d)">
<path d="M13.9648 23.3516C18.7988 23.3516 21.7725 20.9785 21.7725 17.2285V17.2139C21.7725 13.9912 19.9561 12.2334 15.6201 11.2812L13.2764 10.7686C10.5225 10.168 9.24805 9.08398 9.24805 7.35547V7.34082C9.24805 5.30469 11.0938 3.95703 13.9209 3.94238C16.6016 3.94238 18.4033 5.2168 18.7256 7.37012L18.7549 7.5752H21.3916L21.377 7.35547C21.1426 3.89844 18.125 1.51074 13.9941 1.51074C9.64355 1.51074 6.56738 3.94238 6.55273 7.41406V7.42871C6.55273 10.5195 8.48633 12.3799 12.6172 13.2881L14.9609 13.8008C17.8613 14.4453 19.0771 15.4854 19.0771 17.3457V17.3604C19.0771 19.543 17.1582 20.9199 14.1113 20.9199C11.0498 20.9199 8.99902 19.6162 8.69141 17.4922L8.66211 17.2871H6.02539L6.04004 17.4922C6.30371 21.1104 9.39453 23.3516 13.9648 23.3516ZM29.624 23H32.2607V4.23535H38.9258V1.8623H22.959V4.23535H29.624V23ZM37.0947 23H39.8633L42.002 16.9502H50.5127L52.6514 23H55.4199L47.5684 1.8623H44.9609L37.0947 23ZM46.2354 5.02637H46.2939L49.7217 14.709H42.8076L46.2354 5.02637ZM61.0303 23H63.667V13.9033L71.167 1.8623H68.1641L62.3926 11.3545H62.3047L56.5332 1.8623H53.5303L61.0303 13.9033V23ZM71.0791 15.6172H80.4541V13.2441H71.0791V15.6172ZM93.0811 23.3516C97.5049 23.3516 100.889 20.7295 101.694 16.6865L101.724 16.54H99.0576L99.0137 16.6719C98.0908 19.4551 96.04 20.9199 93.0811 20.9199C88.877 20.9199 86.1377 17.5654 86.1377 12.4238V12.4092C86.1377 7.26758 88.8623 3.94238 93.0811 3.94238C96.0547 3.94238 98.1348 5.43652 98.9551 8L99.0576 8.32227H101.724L101.694 8.17578C100.889 4.17676 97.4756 1.51074 93.0811 1.51074C87.1924 1.51074 83.4277 5.75879 83.4277 12.4092V12.4238C83.4277 19.0742 87.207 23.3516 93.0811 23.3516ZM104.844 23H107.48V13.376H119.082V23H121.719V1.8623H119.082V11.0029H107.48V1.8623H104.844V23ZM125.82 23H128.457V1.8623H125.82V23ZM132.559 23H145.391V20.627H135.195V1.8623H132.559V23ZM148.291 23H161.123V20.627H150.928V1.8623H148.291V23Z" fill="#292931"/>
<path d="M15.6201 11.2812L15.8346 10.3045L15.8338 10.3043L15.6201 11.2812ZM13.2764 10.7686L13.4901 9.79165L13.4894 9.79152L13.2764 10.7686ZM13.9209 3.94238L13.9209 2.94237L13.9157 2.9424L13.9209 3.94238ZM18.7256 7.37012L19.7156 7.22869L19.7146 7.22211L18.7256 7.37012ZM18.7549 7.5752L17.7649 7.71662L17.8876 8.5752H18.7549V7.5752ZM21.3916 7.5752V8.5752H22.4605L22.3894 7.50868L21.3916 7.5752ZM21.377 7.35547L22.3747 7.28895L22.3747 7.28783L21.377 7.35547ZM6.55273 7.41406L5.55273 7.40984V7.41406H6.55273ZM12.6172 13.2881L12.4025 14.2648L12.4035 14.265L12.6172 13.2881ZM14.9609 13.8008L15.1779 12.8246L15.1746 12.8239L14.9609 13.8008ZM8.69141 17.4922L7.70145 17.6336L7.70173 17.6355L8.69141 17.4922ZM8.66211 17.2871L9.65206 17.1457L9.5294 16.2871H8.66211V17.2871ZM6.02539 17.2871V16.2871H4.95141L5.02793 17.3584L6.02539 17.2871ZM6.04004 17.4922L5.04258 17.5634L5.04268 17.5649L6.04004 17.4922ZM13.9648 24.3516C16.5332 24.3516 18.7264 23.7221 20.3003 22.4817C21.9004 21.2208 22.7725 19.3945 22.7725 17.2285H20.7725C20.7725 18.8125 20.1577 20.0478 19.0624 20.9109C17.9411 21.7945 16.2304 22.3516 13.9648 22.3516V24.3516ZM22.7725 17.2285V17.2139H20.7725V17.2285H22.7725ZM22.7725 17.2139C22.7725 15.3947 22.2495 13.8663 21.0167 12.6766C19.8255 11.527 18.075 10.7965 15.8346 10.3045L15.4056 12.258C17.5012 12.7182 18.8268 13.3426 19.6278 14.1157C20.3872 14.8485 20.7725 15.8104 20.7725 17.2139H22.7725ZM15.8338 10.3043L13.4901 9.79165L13.0627 11.7455L15.4064 12.2582L15.8338 10.3043ZM13.4894 9.79152C12.1806 9.50608 11.3582 9.13103 10.8763 8.72232C10.4413 8.35344 10.248 7.93104 10.248 7.35547H8.24805C8.24805 8.50842 8.69198 9.49226 9.5827 10.2477C10.4265 10.9632 11.6182 11.4304 13.0633 11.7456L13.4894 9.79152ZM10.248 7.35547V7.34082H8.24805V7.35547H10.248ZM10.248 7.34082C10.248 6.66249 10.54 6.1091 11.1129 5.69197C11.7122 5.25562 12.6572 4.94894 13.9261 4.94237L13.9157 2.9424C12.3575 2.95047 10.966 3.32494 9.93569 4.07512C8.87897 4.84451 8.24805 5.98302 8.24805 7.34082H10.248ZM13.9209 4.94238C15.11 4.94238 16.0122 5.22536 16.6278 5.66346C17.2262 6.08942 17.6145 6.70253 17.7366 7.51813L19.7146 7.22211C19.5144 5.88438 18.8407 4.78363 17.7875 4.03405C16.7514 3.29662 15.4124 2.94238 13.9209 2.94238V4.94238ZM17.7356 7.51154L17.7649 7.71662L19.7448 7.43377L19.7155 7.2287L17.7356 7.51154ZM18.7549 8.5752H21.3916V6.5752H18.7549V8.5752ZM22.3894 7.50868L22.3747 7.28895L20.3792 7.42199L20.3938 7.64171L22.3894 7.50868ZM22.3747 7.28783C22.095 3.16341 18.495 0.510742 13.9941 0.510742V2.51074C17.755 2.51074 20.1901 4.63347 20.3792 7.42311L22.3747 7.28783ZM13.9941 0.510742C9.31746 0.510742 5.57056 3.18716 5.55274 7.40984L7.55273 7.41828C7.56421 4.69761 9.96965 2.51074 13.9941 2.51074V0.510742ZM5.55273 7.41406V7.42871H7.55273V7.41406H5.55273ZM5.55273 7.42871C5.55273 9.20687 6.12027 10.7178 7.34141 11.8964C8.52854 13.0422 10.248 13.7911 12.4025 14.2648L12.8319 12.3114C10.8555 11.8769 9.54275 11.2415 8.73037 10.4574C7.95199 9.70608 7.55273 8.74137 7.55273 7.42871H5.55273ZM12.4035 14.265L14.7472 14.7777L15.1746 12.8239L12.8309 12.3112L12.4035 14.265ZM14.744 14.777C16.1404 15.0873 16.9758 15.4637 17.4547 15.8755C17.8754 16.2373 18.0771 16.6724 18.0771 17.3457H20.0771C20.0771 16.1586 19.671 15.1436 18.7587 14.3591C17.9046 13.6246 16.6818 13.1588 15.1779 12.8246L14.744 14.777ZM18.0771 17.3457V17.3604H20.0771V17.3457H18.0771ZM18.0771 17.3604C18.0771 18.1196 17.7608 18.7109 17.1541 19.1459C16.5148 19.6043 15.4995 19.9199 14.1113 19.9199V21.9199C15.7701 21.9199 17.2376 21.5471 18.3195 20.7713C19.434 19.9722 20.0771 18.7837 20.0771 17.3604H18.0771ZM14.1113 19.9199C11.2625 19.9199 9.8832 18.7445 9.68108 17.3489L7.70173 17.6355C8.11484 20.488 10.8371 21.9199 14.1113 21.9199V19.9199ZM9.68136 17.3508L9.65206 17.1457L7.67216 17.4285L7.70146 17.6336L9.68136 17.3508ZM8.66211 16.2871H6.02539V18.2871H8.66211V16.2871ZM5.02793 17.3584L5.04258 17.5634L7.0375 17.4209L7.02285 17.2159L5.02793 17.3584ZM5.04268 17.5649C5.19591 19.6674 6.18374 21.3994 7.79502 22.5843C9.38582 23.7541 11.5256 24.3516 13.9648 24.3516V22.3516C11.8338 22.3516 10.143 21.8284 8.97988 20.9731C7.83726 20.1328 7.14784 18.9351 7.03739 17.4195L5.04268 17.5649ZM29.624 23H28.624V24H29.624V23ZM32.2607 23V24H33.2607V23H32.2607ZM32.2607 4.23535V3.23535H31.2607V4.23535H32.2607ZM38.9258 4.23535V5.23535H39.9258V4.23535H38.9258ZM38.9258 1.8623H39.9258V0.862305H38.9258V1.8623ZM22.959 1.8623V0.862305H21.959V1.8623H22.959ZM22.959 4.23535H21.959V5.23535H22.959V4.23535ZM29.624 4.23535H30.624V3.23535H29.624V4.23535ZM29.624 24H32.2607V22H29.624V24ZM33.2607 23V4.23535H31.2607V23H33.2607ZM32.2607 5.23535H38.9258V3.23535H32.2607V5.23535ZM39.9258 4.23535V1.8623H37.9258V4.23535H39.9258ZM38.9258 0.862305H22.959V2.8623H38.9258V0.862305ZM21.959 1.8623V4.23535H23.959V1.8623H21.959ZM22.959 5.23535H29.624V3.23535H22.959V5.23535ZM28.624 4.23535V23H30.624V4.23535H28.624ZM37.0947 23L36.1575 22.6512L35.6556 24H37.0947V23ZM39.8633 23V24H40.5704L40.8061 23.3333L39.8633 23ZM42.002 16.9502V15.9502H41.2948L41.0591 16.6169L42.002 16.9502ZM50.5127 16.9502L51.4555 16.6169L51.2198 15.9502H50.5127V16.9502ZM52.6514 23L51.7085 23.3333L51.9442 24H52.6514V23ZM55.4199 23V24H56.8581L56.3573 22.6518L55.4199 23ZM47.5684 1.8623L48.5058 1.5141L48.2637 0.862305H47.5684V1.8623ZM44.9609 1.8623V0.862305H44.2661L44.0237 1.51353L44.9609 1.8623ZM46.2354 5.02637V4.02637H45.5285L45.2927 4.69265L46.2354 5.02637ZM46.2939 5.02637L47.2366 4.69265L47.0007 4.02637H46.2939V5.02637ZM49.7217 14.709V15.709H51.1365L50.6644 14.3753L49.7217 14.709ZM42.8076 14.709L41.8649 14.3753L41.3928 15.709H42.8076V14.709ZM37.0947 24H39.8633V22H37.0947V24ZM40.8061 23.3333L42.9448 17.2835L41.0591 16.6169L38.9205 22.6667L40.8061 23.3333ZM42.002 17.9502H50.5127V15.9502H42.002V17.9502ZM49.5699 17.2835L51.7085 23.3333L53.5942 22.6667L51.4555 16.6169L49.5699 17.2835ZM52.6514 24H55.4199V22H52.6514V24ZM56.3573 22.6518L48.5058 1.5141L46.6309 2.21051L54.4825 23.3482L56.3573 22.6518ZM47.5684 0.862305H44.9609V2.8623H47.5684V0.862305ZM44.0237 1.51353L36.1575 22.6512L38.0319 23.3488L45.8981 2.21108L44.0237 1.51353ZM46.2354 6.02637H46.2939V4.02637H46.2354V6.02637ZM45.3513 5.36008L48.779 15.0427L50.6644 14.3753L47.2366 4.69265L45.3513 5.36008ZM49.7217 13.709H42.8076V15.709H49.7217V13.709ZM43.7503 15.0427L47.178 5.36008L45.2927 4.69265L41.8649 14.3753L43.7503 15.0427ZM61.0303 23H60.0303V24H61.0303V23ZM63.667 23V24H64.667V23H63.667ZM63.667 13.9033L62.8182 13.3746L62.667 13.6174V13.9033H63.667ZM71.167 1.8623L72.0158 2.391L72.968 0.862305H71.167V1.8623ZM68.1641 1.8623V0.862305H67.6017L67.3096 1.34278L68.1641 1.8623ZM62.3926 11.3545V12.3545H62.9549L63.247 11.874L62.3926 11.3545ZM62.3047 11.3545L61.4502 11.874L61.7424 12.3545H62.3047V11.3545ZM56.5332 1.8623L57.3877 1.34278L57.0955 0.862305H56.5332V1.8623ZM53.5303 1.8623V0.862305H51.7293L52.6815 2.391L53.5303 1.8623ZM61.0303 13.9033H62.0303V13.6174L61.8791 13.3746L61.0303 13.9033ZM61.0303 24H63.667V22H61.0303V24ZM64.667 23V13.9033H62.667V23H64.667ZM64.5158 14.432L72.0158 2.391L70.3182 1.33361L62.8182 13.3746L64.5158 14.432ZM71.167 0.862305H68.1641V2.8623H71.167V0.862305ZM67.3096 1.34278L61.5381 10.835L63.247 11.874L69.0185 2.38183L67.3096 1.34278ZM62.3926 10.3545H62.3047V12.3545H62.3926V10.3545ZM63.1591 10.835L57.3877 1.34278L55.6788 2.38183L61.4502 11.874L63.1591 10.835ZM56.5332 0.862305H53.5303V2.8623H56.5332V0.862305ZM52.6815 2.391L60.1815 14.432L61.8791 13.3746L54.3791 1.33361L52.6815 2.391ZM60.0303 13.9033V23H62.0303V13.9033H60.0303ZM71.0791 15.6172H70.0791V16.6172H71.0791V15.6172ZM80.4541 15.6172V16.6172H81.4541V15.6172H80.4541ZM80.4541 13.2441H81.4541V12.2441H80.4541V13.2441ZM71.0791 13.2441V12.2441H70.0791V13.2441H71.0791ZM71.0791 16.6172H80.4541V14.6172H71.0791V16.6172ZM81.4541 15.6172V13.2441H79.4541V15.6172H81.4541ZM80.4541 12.2441H71.0791V14.2441H80.4541V12.2441ZM70.0791 13.2441V15.6172H72.0791V13.2441H70.0791ZM101.694 16.6865L100.714 16.4904L100.714 16.4911L101.694 16.6865ZM101.724 16.54L102.704 16.7362L102.943 15.54H101.724V16.54ZM99.0576 16.54V15.54H98.3369L98.1089 16.2238L99.0576 16.54ZM99.0137 16.6719L98.065 16.3556L98.0645 16.3571L99.0137 16.6719ZM98.9551 8L99.908 7.6968L99.9075 7.69522L98.9551 8ZM99.0576 8.32227L98.1047 8.62547L98.3264 9.32227H99.0576V8.32227ZM101.724 8.32227V9.32227H102.943L102.704 8.12615L101.724 8.32227ZM101.694 8.17578L102.675 7.97966L102.675 7.97828L101.694 8.17578ZM93.0811 24.3516C97.9322 24.3516 101.767 21.4397 102.675 16.882L100.714 16.4911C100.011 20.0193 97.0776 22.3516 93.0811 22.3516V24.3516ZM102.675 16.8826L102.704 16.7362L100.743 16.3439L100.714 16.4904L102.675 16.8826ZM101.724 15.54H99.0576V17.54H101.724V15.54ZM98.1089 16.2238L98.065 16.3556L99.9624 16.9881L100.006 16.8563L98.1089 16.2238ZM98.0645 16.3571C97.6575 17.5847 97.0258 18.4562 96.229 19.0264C95.4313 19.5972 94.3927 19.9199 93.0811 19.9199V21.9199C94.7284 21.9199 96.1947 21.5102 97.3929 20.6528C98.5919 19.7948 99.447 18.5423 99.9629 16.9866L98.0645 16.3571ZM93.0811 19.9199C91.2686 19.9199 89.821 19.2081 88.8072 17.9673C87.7775 16.707 87.1377 14.8256 87.1377 12.4238H85.1377C85.1377 15.1636 85.8675 17.5303 87.2585 19.2327C88.6653 20.9545 90.6894 21.9199 93.0811 21.9199V19.9199ZM87.1377 12.4238V12.4092H85.1377V12.4238H87.1377ZM87.1377 12.4092C87.1377 10.0062 87.7744 8.13339 88.8007 6.8817C89.8106 5.64983 91.2575 4.94238 93.0811 4.94238V2.94238C90.6859 2.94238 88.661 3.89753 87.254 5.61366C85.8633 7.30997 85.1377 9.67055 85.1377 12.4092H87.1377ZM93.0811 4.94238C94.3987 4.94238 95.4538 5.27193 96.2532 5.8299C97.0494 6.38563 97.6522 7.20946 98.0027 8.30478L99.9075 7.69522C99.4377 6.22706 98.5902 5.02209 97.3979 4.18988C96.2088 3.35991 94.737 2.94238 93.0811 2.94238V4.94238ZM98.0022 8.3032L98.1047 8.62547L100.011 8.01906L99.908 7.6968L98.0022 8.3032ZM99.0576 9.32227H101.724V7.32227H99.0576V9.32227ZM102.704 8.12615L102.675 7.97967L100.714 8.3719L100.743 8.51838L102.704 8.12615ZM102.675 7.97828C101.766 3.46905 97.906 0.510742 93.0811 0.510742V2.51074C97.0452 2.51074 100.011 4.88446 100.714 8.37328L102.675 7.97828ZM93.0811 0.510742C89.8817 0.510742 87.1844 1.67308 85.2976 3.80296C83.4222 5.91999 82.4277 8.90034 82.4277 12.4092H84.4277C84.4277 9.26762 85.3156 6.79876 86.7947 5.12917C88.2623 3.47243 90.3917 2.51074 93.0811 2.51074V0.510742ZM82.4277 12.4092V12.4238H84.4277V12.4092H82.4277ZM82.4277 12.4238C82.4277 15.9335 83.4263 18.9202 85.3022 21.0437C87.1895 23.18 89.8863 24.3516 93.0811 24.3516V22.3516C90.4018 22.3516 88.272 21.3845 86.8011 19.7195C85.3188 18.0417 84.4277 15.5645 84.4277 12.4238H82.4277ZM104.844 23H103.844V24H104.844V23ZM107.48 23V24H108.48V23H107.48ZM107.48 13.376V12.376H106.48V13.376H107.48ZM119.082 13.376H120.082V12.376H119.082V13.376ZM119.082 23H118.082V24H119.082V23ZM121.719 23V24H122.719V23H121.719ZM121.719 1.8623H122.719V0.862305H121.719V1.8623ZM119.082 1.8623V0.862305H118.082V1.8623H119.082ZM119.082 11.0029V12.0029H120.082V11.0029H119.082ZM107.48 11.0029H106.48V12.0029H107.48V11.0029ZM107.48 1.8623H108.48V0.862305H107.48V1.8623ZM104.844 1.8623V0.862305H103.844V1.8623H104.844ZM104.844 24H107.48V22H104.844V24ZM108.48 23V13.376H106.48V23H108.48ZM107.48 14.376H119.082V12.376H107.48V14.376ZM118.082 13.376V23H120.082V13.376H118.082ZM119.082 24H121.719V22H119.082V24ZM122.719 23V1.8623H120.719V23H122.719ZM121.719 0.862305H119.082V2.8623H121.719V0.862305ZM118.082 1.8623V11.0029H120.082V1.8623H118.082ZM119.082 10.0029H107.48V12.0029H119.082V10.0029ZM108.48 11.0029V1.8623H106.48V11.0029H108.48ZM107.48 0.862305H104.844V2.8623H107.48V0.862305ZM103.844 1.8623V23H105.844V1.8623H103.844ZM125.82 23H124.82V24H125.82V23ZM128.457 23V24H129.457V23H128.457ZM128.457 1.8623H129.457V0.862305H128.457V1.8623ZM125.82 1.8623V0.862305H124.82V1.8623H125.82ZM125.82 24H128.457V22H125.82V24ZM129.457 23V1.8623H127.457V23H129.457ZM128.457 0.862305H125.82V2.8623H128.457V0.862305ZM124.82 1.8623V23H126.82V1.8623H124.82ZM132.559 23H131.559V24H132.559V23ZM145.391 23V24H146.391V23H145.391ZM145.391 20.627H146.391V19.627H145.391V20.627ZM135.195 20.627H134.195V21.627H135.195V20.627ZM135.195 1.8623H136.195V0.862305H135.195V1.8623ZM132.559 1.8623V0.862305H131.559V1.8623H132.559ZM132.559 24H145.391V22H132.559V24ZM146.391 23V20.627H144.391V23H146.391ZM145.391 19.627H135.195V21.627H145.391V19.627ZM136.195 20.627V1.8623H134.195V20.627H136.195ZM135.195 0.862305H132.559V2.8623H135.195V0.862305ZM131.559 1.8623V23H133.559V1.8623H131.559ZM148.291 23H147.291V24H148.291V23ZM161.123 23V24H162.123V23H161.123ZM161.123 20.627H162.123V19.627H161.123V20.627ZM150.928 20.627H149.928V21.627H150.928V20.627ZM150.928 1.8623H151.928V0.862305H150.928V1.8623ZM148.291 1.8623V0.862305H147.291V1.8623H148.291ZM148.291 24H161.123V22H148.291V24ZM162.123 23V20.627H160.123V23H162.123ZM161.123 19.627H150.928V21.627H161.123V19.627ZM151.928 20.627V1.8623H149.928V20.627H151.928ZM150.928 0.862305H148.291V2.8623H150.928V0.862305ZM147.291 1.8623V23H149.291V1.8623H147.291Z" fill="#292931"/>
</g>
<defs>
<filter id="filter0_d" x="0.951416" y="0.510742" width="165.172" height="31.8408" filterUnits="userSpaceOnUse" color-interpolation-filters="sRGB">
<feFlood flood-opacity="0" result="BackgroundImageFix"/>
<feColorMatrix in="SourceAlpha" type="matrix" values="0 0 0 0 0 0 0 0 0 0 0 0 0 0 0 0 0 0 127 0"/>
<feOffset dy="4"/>
<feGaussianBlur stdDeviation="2"/>
<feColorMatrix type="matrix" values="0 0 0 0 0 0 0 0 0 0 0 0 0 0 0 0 0 0 0.25 0"/>
<feBlend mode="normal" in2="BackgroundImageFix" result="effect1_dropShadow"/>
<feBlend mode="normal" in="SourceGraphic" in2="effect1_dropShadow" result="shape"/>
</filter>
</defs>
</svg>
